PathFileType	4	(X/Y/Z)	C:\Users\Basilio\Documents\Thesis Gigler\squatting_fais\c3dfiles\038\SLS_back_pre1\markers_experimental.trc
DataRate	CameraRate	NumFrames	NumMarkers	Units	OrigDataRate	OrigDataStartFrame	OrigNumFrames
200.000000	200.000000	4	63	mm	200.000000	543	1448
Frame#	Time	FHD			LBHD			RBHD			C7			T10			CLAV			LSHO			LUUPA			LMUPA			LDUPA			LLEP			LMEP			LUL			LRFIN			RSHO			RUPA1			RMUPA			RDUPA			RLEP			RMEP			RRAD			RUL			RUFIN			LASI			RASI			USACR			LSACR			RSACR			LTHI1			LTHI2			LTHI3			LTHI4			LLFC			LMFC			LTIB1			LTIB2			LTIB3			LTIB4			LLMAL			LMMAL			LHEE			LMT1			LMT2			LMT5			RTHI			RTHI2			RTHI3			RTHI4			RLFC			RMFC			RTIB1			RTIB2			RTIB3			RTIB4			RLMAL			RMMAL			RHEE			RMT1			RMT2			RMT5			LRAD			*61			*62			
		X1	Y1	Z1	X2	Y2	Z2	X3	Y3	Z3	X4	Y4	Z4	X5	Y5	Z5	X6	Y6	Z6	X7	Y7	Z7	X8	Y8	Z8	X9	Y9	Z9	X10	Y10	Z10	X11	Y11	Z11	X12	Y12	Z12	X13	Y13	Z13	X14	Y14	Z14	X15	Y15	Z15	X16	Y16	Z16	X17	Y17	Z17	X18	Y18	Z18	X19	Y19	Z19	X20	Y20	Z20	X21	Y21	Z21	X22	Y22	Z22	X23	Y23	Z23	X24	Y24	Z24	X25	Y25	Z25	X26	Y26	Z26	X27	Y27	Z27	X28	Y28	Z28	X29	Y29	Z29	X30	Y30	Z30	X31	Y31	Z31	X32	Y32	Z32	X33	Y33	Z33	X34	Y34	Z34	X35	Y35	Z35	X36	Y36	Z36	X37	Y37	Z37	X38	Y38	Z38	X39	Y39	Z39	X40	Y40	Z40	X41	Y41	Z41	X42	Y42	Z42	X43	Y43	Z43	X44	Y44	Z44	X45	Y45	Z45	X46	Y46	Z46	X47	Y47	Z47	X48	Y48	Z48	X49	Y49	Z49	X50	Y50	Z50	X51	Y51	Z51	X52	Y52	Z52	X53	Y53	Z53	X54	Y54	Z54	X55	Y55	Z55	X56	Y56	Z56	X57	Y57	Z57	X58	Y58	Z58	X59	Y59	Z59	X60	Y60	Z60	X61	Y61	Z61	X62	Y62	Z62	X63	Y63	Z63	

544	2.715	-202.6044921875001	1693.113647460938	-1091.43896484375	-354.7310180664063	1631.487060546875	-1150.603271484375	-344.5154418945313	1618.379150390625	-1005.842224121094	-390.7029113769532	1458.036254882813	-1073.19091796875	-399.3397216796876	1180.0322265625	-1039.502807617188	-248.7569732666016	1432.85791015625	-1087.749389648438	-318.0402526855469	1464.81884765625	-1228.0166015625	-168.8258056640625	1394.9794921875	-1369.70361328125	-138.6497802734375	1430.376831054688	-1348.6181640625	-101.3380584716797	1402.390258789063	-1385.433959960938	-38.49077606201173	1405.716674804688	-1393.759765625	-26.84943771362305	1331.684814453125	-1369.57373046875	256.8839416503907	1420.952392578125	-1353.075805664063	318.4067077636719	1435.927001953125	-1261.573364257813	-288.0319213867188	1472.068481445313	-944.8192138671877	-130.3704071044922	1451.688110351563	-826.5814208984377	-95.29644012451173	1459.398681640625	-859.6187744140627	-62.69027709960939	1448.817016601563	-809.7867431640627	10.57565593719483	1447.728637695313	-799.7584228515627	17.32484245300293	1368.631958007813	-812.136657714844	285.5647888183594	1440.228271484375	-888.6770019531252	298.3144226074219	1463.134521484375	-822.8386230468752	361.8903503417969	1476.188842773438	-902.8906860351565	-233.6486968994141	976.3969726562502	-1127.349975585938	-262.7197875976563	1004.554565429688	-880.7728271484377	-414.1852111816407	1044.754516601563	-1026.832153320313	-424.599090576172	1013.469909667969	-1054.445922851563	-431.4212036132814	1017.959655761719	-997.5862426757815	-199.3318634033204	673.3123168945314	-1178.990234375	-148.2410125732422	604.9713134765626	-1170.196533203125	-106.5618743896485	622.3705444335939	-1146.427978515625	-163.1696014404297	549.8212890625001	-1151.093139648438	-153.6488342285157	493.918670654297	-1138.254150390625	-144.5738220214844	497.6928710937501	-1022.307922363281	-179.27197265625	317.7520141601563	-1041.833129882813	-236.1463012695313	286.3605041503907	-1102.727172851563	-204.1974792480469	273.1533203125001	-1071.192626953125	-247.9003143310547	210.8570861816407	-1031.978271484375	-376.9986877441407	118.4814987182617	-1042.093139648438	-333.3829040527344	134.6338653564453	-969.3416748046877	-432.7921447753907	101.7856674194336	-981.8284301757815	-234.0023193359376	47.0291862487793	-975.5935058593752	-226.1245880126954	43.98479080200196	-1025.800170898438	-271.4469604492188	33.67462539672852	-1072.757202148438	-313.9955749511719	734.9562988281251	-801.834655761719	-278.2858886718751	679.3265991210939	-788.3401489257815	-245.3109741210938	679.7763061523439	-790.1296997070315	-307.0649108886719	598.4929199218751	-793.8767700195315	-307.7433471679688	490.6392517089845	-799.8980102539065	-295.7378845214844	476.6755676269532	-911.9067382812502	-420.5608825683595	360.5762329101563	-828.041687011719	-531.5708007812501	393.2937011718751	-818.252624511719	-505.7878417968751	353.8309020996094	-817.2661132812502	-539.6620483398439	316.4445190429688	-849.879089355469	-674.4635009765626	320.9232482910157	-846.5920410156252	-645.0515747070314	283.6045532226563	-915.7437744140627	-703.8543090820314	360.3884277343751	-926.4614868164065	-703.6236572265626	145.6901245117188	-890.018249511719	-713.9277343750001	153.178207397461	-844.0671386718752	-748.9352416992189	197.4802703857422	-815.3928833007815	246.5779571533204	1401.766357421875	-1284.178955078125	nan	nan	nan	nan	nan	nan	
545	2.72	-202.0519256591797	1692.3193359375	-1091.38720703125	-354.4547424316407	1630.630126953125	-1150.544067382813	-344.2625427246094	1617.46240234375	-1005.869689941406	-390.4479370117189	1457.23388671875	-1073.236206054688	-399.2740478515626	1179.29736328125	-1039.480102539063	-248.4303894042969	1432.096313476563	-1087.697143554688	-317.6707458496094	1464.147094726563	-1228.097290039063	-168.4908905029297	1394.450805664063	-1369.697021484375	-138.296142578125	1429.563354492188	-1348.218383789063	-101.0840530395508	1401.792114257813	-1385.394775390625	-38.61049270629884	1405.408569335938	-1393.847778320313	-26.55018424987794	1331.039794921875	-1369.635375976563	257.1507568359376	1420.380493164063	-1352.9404296875	318.7381591796876	1435.107177734375	-1261.415405273438	-287.8397216796876	1471.28125	-944.8315429687502	-130.2963409423828	1451.04931640625	-826.6263427734377	-95.15802001953126	1458.70458984375	-859.7171630859377	-62.39263916015626	1448.109252929688	-809.9152832031252	10.88530063629151	1447.109008789063	-799.8270263671877	17.55698776245118	1368.132446289063	-812.2133789062502	285.7160034179688	1439.733154296875	-888.888366699219	298.6008300781251	1462.84130859375	-823.126647949219	362.1527709960938	1476.072265625	-903.0364379882815	-233.7250213623047	975.6597290039065	-1127.336303710938	-262.9127197265626	1003.728332519531	-880.846618652344	-414.2449035644532	1044.316650390625	-1026.953247070313	-424.6233520507814	1012.640319824219	-1054.584106445313	-431.5000610351564	1017.103515625	-997.6660156250002	-199.0286254882813	672.7994995117189	-1179.219970703125	-147.8407897949219	604.5709228515626	-1170.386108398438	-106.2309722900391	622.0098266601564	-1146.579833984375	-162.6279296875	549.3158569335939	-1151.267822265625	-153.4854278564453	493.0731811523439	-1138.439697265625	-143.1953125	497.0600891113282	-1022.213562011719	-178.971923828125	317.4071960449219	-1041.972778320313	-235.7895202636719	285.8763122558594	-1102.91845703125	-204.1873626708985	273.0164184570313	-1071.448486328125	-247.7224578857422	210.6204986572266	-1032.307739257813	-377.5462951660157	118.0123367309571	-1042.3994140625	-333.2790832519532	134.687744140625	-969.5105590820315	-432.802947998047	101.7191848754883	-981.7969970703127	-233.9907379150391	47.11396026611329	-975.663757324219	-226.108383178711	43.98875045776368	-1025.863403320313	-271.4709472656251	33.68737411499024	-1072.753051757813	-314.5072631835938	734.2266235351564	-801.8931884765627	-278.9070739746094	678.3436279296876	-788.1633300781252	-245.6227569580079	678.8903808593751	-790.2293090820315	-307.7914123535157	597.6921997070314	-793.8538818359377	-308.2094421386719	490.1745605468751	-799.8909912109377	-296.2476196289063	475.7904052734376	-911.7640380859377	-421.2656555175782	360.0178222656251	-828.1345825195315	-532.2577514648439	392.7728271484376	-818.3156738281252	-506.5095825195314	353.1105651855469	-817.3587036132815	-540.5767822265626	316.1159057617188	-849.8137817382815	-675.1788940429689	320.4992675781251	-846.7485961914065	-645.7756347656251	283.2991333007813	-915.7971801757815	-704.6959838867189	360.3089599609376	-926.6596679687502	-704.0869750976564	145.9856719970703	-889.5031738281252	-714.9852905273439	152.9511108398438	-844.1501464843752	-749.9761962890626	196.9062652587891	-815.5703125000002	246.7267456054688	1401.056640625	-1284.12841796875	nan	nan	nan	nan	nan	nan	
546	2.725	-202.1991577148438	1691.658935546875	-1091.318237304688	-354.1565551757813	1629.988891601563	-1150.43212890625	-344.1022644042969	1616.9404296875	-1006.046691894531	-390.319305419922	1456.515502929688	-1073.183349609375	-399.4371032714845	1178.527709960938	-1039.638549804688	-248.1818237304688	1431.226440429688	-1087.757568359375	-317.4997253417969	1463.387329101563	-1228.059814453125	-168.1581573486328	1393.870971679688	-1369.726196289063	-138.1307373046875	1428.859985351563	-1348.177978515625	-100.7570953369141	1401.298583984375	-1385.467651367188	-38.24139022827149	1404.893188476563	-1393.880004882813	-26.2987461090088	1330.494873046875	-1369.59228515625	257.4013366699219	1419.765380859375	-1352.806518554688	318.8908996582032	1434.324829101563	-1261.258666992188	-287.5773010253907	1470.628540039063	-944.9068603515627	-130.0321807861328	1450.296630859375	-826.7347412109377	-95.02304840087892	1457.989868164063	-859.7075805664065	-62.33847808837892	1447.505249023438	-810.0100708007815	11.16487884521485	1446.618286132813	-800.0479736328127	17.84891128540039	1367.289184570313	-812.2558593750002	285.9374694824219	1439.296630859375	-889.1036376953127	298.8823242187501	1462.47314453125	-823.423522949219	362.3588562011719	1475.767822265625	-903.3770751953127	-233.8996582031251	974.5795898437502	-1127.170288085938	-262.9683532714844	1002.888916015625	-880.8460083007815	-414.445281982422	1043.28955078125	-1026.961669921875	-425.1204223632814	1012.232666015625	-1054.689453125	-431.6465148925782	1016.386657714844	-997.6550292968752	-198.7516784667969	672.2248535156251	-1179.422485351563	-147.2213134765625	604.0748291015626	-1170.7294921875	-105.9525146484375	621.6272583007814	-1146.78173828125	-161.9984436035157	548.7429809570314	-1151.52294921875	-153.0574493408203	492.6335754394532	-1138.771484375	-142.9298553466797	496.6773071289064	-1022.431396484375	-178.617919921875	316.9996032714844	-1042.240478515625	-235.5702209472657	285.5842285156251	-1103.232421875	-203.9216461181641	272.4789123535157	-1071.69140625	-247.5075683593751	210.367416381836	-1032.51318359375	-377.5332336425782	117.9730758666992	-1042.51513671875	-333.2489624023438	134.5555877685547	-969.6662597656252	-432.7994384765626	101.7210693359375	-981.796081542969	-233.9633789062501	47.18203735351563	-975.8025512695315	-226.1678009033204	43.91954803466798	-1025.955444335938	-271.4667358398438	33.67205429077149	-1072.816040039063	-314.9808044433594	733.2486572265626	-801.9530029296877	-278.9812316894532	678.0079345703126	-787.6509399414065	-246.1963653564454	678.0303955078126	-790.023864746094	-308.3345031738282	596.9672851562501	-793.8717041015627	-308.9075317382813	489.0865783691407	-799.9958496093752	-296.7026367187501	475.0277709960939	-911.5928955078127	-421.8958740234376	359.2483825683594	-827.921081542969	-533.0087890625001	392.2169189453126	-818.3131103515627	-507.1911010742189	352.3971862792969	-817.330505371094	-541.2817993164064	315.6607360839844	-849.8048095703127	-675.9227294921876	320.1065368652344	-846.8574218750002	-646.5606689453126	282.8401489257813	-915.8309326171877	-705.2506713867189	359.8604125976563	-926.5422973632815	-705.1384277343751	145.3269958496094	-889.9985961914065	-715.7798461914064	152.6562042236328	-844.1658935546877	-750.8826904296876	196.5636138916016	-815.7713012695315	246.9890747070313	1400.369873046875	-1284.008422851563	nan	nan	nan	nan	nan	nan	
547	2.73	-202.1303863525391	1690.941772460938	-1091.408325195313	-353.9754028320313	1629.325439453125	-1150.444213867188	-343.7511596679688	1616.239990234375	-1006.05859375	-390.1922912597657	1455.70166015625	-1073.28076171875	-399.1654357910157	1177.916625976563	-1039.635986328125	-248.1031341552735	1430.405395507813	-1087.673095703125	-317.2713623046876	1462.609008789063	-1228.0087890625	-167.8913269042969	1393.239501953125	-1369.73974609375	-137.7668762207032	1428.263427734375	-1348.194213867188	-100.4325561523438	1400.577392578125	-1385.360473632813	-37.9599723815918	1404.24072265625	-1393.856323242188	-26.07905578613282	1329.992797851563	-1369.692504882813	257.6112670898438	1419.199829101563	-1352.614868164063	319.1683654785157	1433.592651367188	-1261.096069335938	-287.4323425292969	1469.741333007813	-944.8321533203127	-129.7231597900391	1449.531372070313	-826.7898559570315	-94.94070434570314	1457.28662109375	-859.7595825195315	-62.18119430541994	1446.963012695313	-809.951599121094	11.48993301391602	1446.040283203125	-800.139587402344	17.9049301147461	1366.438232421875	-812.6062622070315	285.9854125976563	1438.778686523438	-888.5662231445315	299.1319580078126	1461.9755859375	-823.6082763671877	362.4864196777344	1475.66796875	-903.8195800781252	-233.7823638916016	974.0812988281252	-1127.050659179688	-263.2525024414063	1001.854919433594	-880.778015136719	-414.600067138672	1042.656982421875	-1026.932495117188	-425.1451416015626	1011.308349609375	-1054.81201171875	-431.7515563964845	1015.542602539063	-997.7934570312502	-198.3344726562501	671.6971435546876	-1179.655151367188	-146.5849609375	603.7569580078126	-1171.055541992188	-105.6719818115235	621.3358764648439	-1147.016845703125	-161.3867340087891	548.2291259765626	-1151.939819335938	-152.4423828125	492.2088012695314	-1138.998168945313	-142.7242584228516	496.2503967285157	-1022.76025390625	-178.2843780517578	316.5416564941407	-1042.529541015625	-235.3783111572266	285.2987060546876	-1103.452392578125	-203.7503967285157	272.2971496582032	-1071.740600585938	-247.2951049804688	209.9084930419922	-1032.458251953125	-377.5445556640626	117.836296081543	-1042.6962890625	-333.2564086914063	134.5489959716797	-969.8468017578127	-432.7382812500001	101.7481079101563	-981.9182128906252	-233.9325408935547	47.42942047119141	-975.8579711914065	-226.1298828125001	43.93982696533204	-1026.0859375	-271.5227050781251	33.57816314697266	-1072.856079101563	-315.3618469238282	732.4758911132814	-802.0078125000002	-279.8426818847657	676.7347412109376	-788.087341308594	-246.6144561767579	677.2407226562501	-790.0239257812502	-308.8825073242188	595.9213256835939	-793.7954711914065	-309.2686157226563	488.0311889648439	-799.946716308594	-297.3402404785157	473.9892883300782	-911.6547851562502	-422.6498413085939	358.6737670898438	-827.5559082031252	-533.6660156250001	391.5099487304689	-818.2004394531252	-507.8654174804689	351.7668457031251	-817.2976684570315	-541.8595581054689	315.1554565429688	-849.647888183594	-676.7014770507814	319.6948547363282	-846.9545898437502	-647.2787475585939	282.3406372070313	-915.9062500000002	-705.8421020507814	359.4426574707032	-926.6712036132815	-705.9609375000001	145.0330963134766	-890.109069824219	-716.7095947265626	152.1392517089844	-844.2761230468752	-751.4336547851564	196.6136322021485	-815.7252197265627	247.0151824951172	1399.865356445313	-1283.9638671875	nan	nan	nan	nan	nan	nan	
